#!OML:ASF F:\VICON\USERDATA\INSTALL\rory3\rory3.ASF
:FULLY-SPECIFIED
:DEGREES
1611
root 0.496307 14.6821 -3.40531 6.23847 1.74835 0.421366
lowerback 39.4293 0.270164 2.7138
upperback 14.4097 1.44737 1.65447
thorax -3.12021 0.746122 -0.16994
lowerneck -8.21323 -3.06921 -8.25383
upperneck -18.8836 -2.3151 11.3057
head -3.99337 -1.1271 4.9564
rclavicle 2.46493e-014 6.36111e-015
rhumerus 27.662 13.9865 -83.5294
rradius 123.934
rwrist 30.5046
rhand 16.2312 5.29958
rfingers 7.12502
rthumb 41.0093 -19.6139
lclavicle 2.46493e-014 6.36111e-015
lhumerus 26.128 -23.6498 75.261
lradius 122.731
lwrist 0.821181
lhand -11.8858 26.162
lfingers 7.12502
lthumb 14.167 55.6589
rfemur -43.9422 5.00056 11.814
rtibia 55.8106
rfoot -14.1723 -9.20566
rtoes -18.8114
lfemur -44.0341 -6.90285 -15.4118
ltibia 53.2264
lfoot -11.507 2.75036
ltoes -16.0763
1612
root 0.492926 14.6842 -3.4063 6.23951 1.83328 0.403674
lowerback 39.3981 0.324322 2.61304
upperback 14.3938 1.48132 1.69653
thorax -3.13232 0.756866 -0.085943
lowerneck -8.39991 -2.95899 -8.28921
upperneck -18.8063 -2.15226 11.2775
head -3.95678 -1.03448 4.94952
rclavicle 1.35174e-014 4.77083e-015
rhumerus 27.6477 14.0005 -83.4081
rradius 123.983
rwrist 30.4998
rhand 16.3399 5.41326
rfingers 7.12502
rthumb 41.1114 -19.4676
lclavicle 1.35174e-014 4.77083e-015
lhumerus 25.9833 -23.6656 75.4306
lradius 122.734
lwrist 0.780601
lhand -11.8721 26.2001
lfingers 7.12502
lthumb 14.1803 55.6962
rfemur -43.9722 5.01155 11.8323
rtibia 55.8499
rfoot -14.1469 -9.26491
rtoes -18.5795
lfemur -44.0489 -6.94527 -15.3776
ltibia 53.1982
lfoot -11.4731 2.73141
ltoes -16.1415
1613
root 0.491139 14.6849 -3.40884 6.28675 1.94874 0.384213
lowerback 39.3002 0.350533 2.60022
upperback 14.396 1.50921 1.72181
thorax -3.1007 0.770033 -0.062
lowerneck -8.63391 -2.84967 -8.29918
upperneck -18.7192 -1.99363 11.2099
head -3.91095 -0.942347 4.92505
rclavicle -6.36111e-015 -3.57812e-015
rhumerus 27.7003 13.9486 -83.3036
rradius 124.015
rwrist 30.5815
rhand 16.3807 5.4459
rfingers 7.12502
rthumb 41.1496 -19.4227
lclavicle -6.36111e-015 -3.57812e-015
lhumerus 25.89 -23.7034 75.5699
lradius 122.741
lwrist 0.789563
lhand -12.1784 26.1044
lfingers 7.12502
lthumb 13.8851 55.6208
rfemur -44.0603 5.00071 11.8324
rtibia 55.8921
rfoot -14.1591 -9.31965
rtoes -17.9126
lfemur -44.1357 -6.98626 -15.3514
ltibia 53.1814
lfoot -11.3901 2.7142
ltoes -16.0932
1614
root 0.489041 14.6836 -3.40967 6.30967 2.07446 0.398298
lowerback 39.2389 0.379169 2.56603
upperback 14.3885 1.53384 1.73823
thorax -3.09154 0.781091 -0.0355872
lowerneck -8.93112 -2.72641 -8.18211
upperneck -18.5263 -1.83455 11.0664
head -3.8266 -0.852796 4.85136
rclavicle -1.03368e-014 -9.14409e-015
rhumerus 27.7575 13.8838 -83.1643
rradius 124.061
rwrist 30.5912
rhand 16.155 5.28469
rfingers 7.12502
rthumb 40.9377 -19.6515
lclavicle -1.03368e-014 -9.14409e-015
lhumerus 25.8542 -23.7894 75.639
lradius 122.721
lwrist 0.762034
lhand -12.8166 26.3807
lfingers 7.12502
lthumb 13.27 55.9382
rfemur -44.0856 4.97807 11.8056
rtibia 55.9235
rfoot -14.1728 -9.38052
rtoes -17.6185
lfemur -44.1919 -7.04616 -15.3631
ltibia 53.1746
lfoot -11.343 2.69813
ltoes -16.0638
1615
root 0.487899 14.6833 -3.40893 6.30144 2.19354 0.36547
lowerback 39.1879 0.412824 2.56146
upperback 14.3973 1.57641 1.78117
thorax -3.06716 0.800706 -0.00259614
lowerneck -9.13468 -2.57593 -7.96494
upperneck -18.4268 -1.65261 10.8567
head -3.79022 -0.759056 4.74346
rclavicle -2.38542e-015 1.19271e-015
rhumerus 27.8589 13.7861 -83.0454
rradius 124.11
rwrist 30.4781
rhand 16.0002 5.18591
rfingers 7.12502
rthumb 40.7922 -19.7962
lclavicle -2.38542e-015 1.19271e-015
lhumerus 25.8421 -23.879 75.7156
lradius 122.753
lwrist 0.777561
lhand -13.1419 26.6772
lfingers 7.12502
lthumb 12.9564 56.255
rfemur -44.0499 4.96551 11.8401
rtibia 55.9253
rfoot -14.1069 -9.55535
rtoes -18.0525
lfemur -44.2145 -7.12176 -15.3228
ltibia 53.1829
lfoot -11.3085 2.68166
ltoes -15.9665
1616
root 0.485926 14.6822 -3.40893 6.28436 2.31332 0.273189
lowerback 39.12 0.452575 2.5938
upperback 14.4121 1.64051 1.8562
thorax -3.03056 0.830588 0.0378867
lowerneck -9.15345 -2.44311 -7.8714
upperneck -18.5 -1.48046 10.7225
head -3.83053 -0.671592 4.68697
rclavicle 4.77083e-015 2.78299e-015
rhumerus 27.9328 13.7135 -82.9537
rradius 124.149
rwrist 30.478
rhand 16.0616 5.30628
rfingers 7.12502
rthumb 40.85 -19.6576
lclavicle 4.77083e-015 2.78299e-015
lhumerus 25.8126 -23.9597 75.8271
lradius 122.773
lwrist 0.822819
lhand -13.104 26.6635
lfingers 7.12502
lthumb 12.993 56.2389
rfemur -43.9863 4.95902 11.9482
rtibia 55.9003
rfoot -14.023 -9.70813
rtoes -18.5758
lfemur -44.2515 -7.17253 -15.2171
ltibia 53.2159
lfoot -11.3054 2.60864
ltoes -16.0757
1617
root 0.483624 14.6812 -3.40798 6.23974 2.46021 0.205157
lowerback 39.0819 0.464312 2.65614
upperback 14.4362 1.68183 1.91996
thorax -2.99177 0.851614 0.0590196
lowerneck -9.20268 -2.36652 -7.95339
upperneck -18.5136 -1.36055 10.7301
head -3.83739 -0.603517 4.70387
rclavicle -2.46493e-014 -1.19271e-014
rhumerus 28.0028 13.651 -82.8723
rradius 124.209
rwrist 30.4678
rhand 16.1973 5.32563
rfingers 7.12502
rthumb 40.9775 -19.5979
lclavicle -2.46493e-014 -1.19271e-014
lhumerus 25.8928 -24.0521 75.8831
lradius 122.726
lwrist 0.892415
lhand -13.1143 26.5394
lfingers 7.12502
lthumb 12.983 56.1155
rfemur -43.8659 4.89808 12.0386
rtibia 55.8759
rfoot -14.0729 -9.73608
rtoes -18.7339
lfemur -44.251 -7.24987 -15.1371
ltibia 53.2517
lfoot -11.336 2.5102
ltoes -16.0455
1618
root 0.482186 14.6828 -3.40843 6.22112 2.5354 0.0754258
lowerback 39.0415 0.47973 2.74753
upperback 14.4556 1.73491 1.97202
thorax -2.95567 0.879131 0.0488491
lowerneck -9.3016 -2.30364 -7.99604
upperneck -18.5082 -1.26333 10.7151
head -3.82951 -0.547308 4.70587
rclavicle 2.22639e-014 8.34896e-015
rhumerus 28.0812 13.6486 -82.7586
rradius 124.281
rwrist 30.3765
rhand 15.982 5.13571
rfingers 7.12502
rthumb 40.7752 -19.8517
lclavicle 2.22639e-014 8.34896e-015
lhumerus 25.9832 -24.097 75.8639
lradius 122.709
lwrist 1.03921
lhand -13.0343 26.4896
lfingers 7.12502
lthumb 13.0601 56.0608
rfemur -43.853 4.90593 12.1789
rtibia 55.8596
rfoot -14.0826 -9.70641
rtoes -18.2395
lfemur -44.2741 -7.27286 -14.9883
ltibia 53.2831
lfoot -11.3416 2.5074
ltoes -16.2845
1619
root 0.482473 14.6818 -3.40956 6.24531 2.5832 0.0742703
lowerback 38.9998 0.502698 2.71913
upperback 14.4436 1.75299 1.97715
thorax -2.95705 0.886874 0.0626421
lowerneck -9.42351 -2.21844 -7.95577
upperneck -18.5034 -1.14872 10.6221
head -3.82259 -0.484119 4.66865
rclavicle 1.74931e-014 7.55382e-015
rhumerus 28.0951 13.6991 -82.7205
rradius 124.373
rwrist 30.2845
rhand 16.1168 4.96509
rfingers 7.12502
rthumb 40.9018 -19.9824
lclavicle 1.74931e-014 7.55382e-015
lhumerus 25.9119 -24.0964 75.903
lradius 122.693
lwrist 1.03782
lhand -12.9386 26.4666
lfingers 7.12502
lthumb 13.1524 56.0318
rfemur -43.9189 4.8743 12.1729
rtibia 55.8793
rfoot -14.0559 -9.69536
rtoes -17.9202
lfemur -44.3227 -7.30142 -14.9797
ltibia 53.2907
lfoot -11.3548 2.50927
ltoes -16.3297
1620
root 0.483096 14.6811 -3.40978 6.24861 2.61239 0.138298
lowerback 38.9867 0.547255 2.62872
upperback 14.4301 1.77654 1.97939
thorax -2.97116 0.894889 0.10314
lowerneck -9.52797 -2.14412 -7.94973
upperneck -18.5171 -1.0446 10.5497
head -3.82215 -0.425448 4.6445
rclavicle -1.51076e-014 -1.59028e-014
rhumerus 28.1161 13.5878 -82.7627
rradius 124.45
rwrist 29.9919
rhand 16.8353 5.47702
rfingers 7.12502
rthumb 41.5763 -19.2534
lclavicle -1.51076e-014 -1.59028e-014
lhumerus 25.8476 -24.0857 75.9214
lradius 122.666
lwrist 0.976593
lhand -12.8013 26.4215
lfingers 7.12502
lthumb 13.2847 55.9781
rfemur -43.9275 4.86185 12.0876
rtibia 55.9018
rfoot -14.0729 -9.65751
rtoes -17.5018
lfemur -44.3205 -7.33742 -15.0534
ltibia 53.2758
lfoot -11.3248 2.52919
ltoes -16.5989
1621
root 0.483592 14.6808 -3.40929 6.24662 2.63837 0.191779
lowerback 38.9495 0.573704 2.55706
upperback 14.4215 1.78325 1.976
thorax -2.97166 0.895962 0.134224
lowerneck -9.59362 -2.09787 -8.03686
upperneck -18.4991 -0.965588 10.5827
head -3.8125 -0.37861 4.66947
rclavicle 3.02153e-014 9.14409e-015
rhumerus 28.1291 13.3966 -82.9243
rradius 124.548
rwrist 29.4628
rhand 17.2572 6.51852
rfingers 7.12502
rthumb 41.9719 -18.0809
lclavicle 3.02153e-014 9.14409e-015
lhumerus 25.804 -24.0329 75.9243
lradius 122.662
lwrist 0.940705
lhand -12.6712 26.4096
lfingers 7.12502
lthumb 13.4101 55.9579
rfemur -43.9249 4.85678 12.0232
rtibia 55.9256
rfoot -14.0675 -9.69579
rtoes -17.8101
lfemur -44.3095 -7.36112 -15.1146
ltibia 53.2493
lfoot -11.3216 2.50729
ltoes -16.5417
1622
root 0.481351 14.6805 -3.40953 6.16373 2.63909 0.189315
lowerback 39.0054 0.623075 2.48498
upperback 14.4387 1.82064 1.99372
thorax -2.97314 0.910353 0.176718
lowerneck -9.72285 -2.0782 -8.10636
upperneck -18.4396 -0.921156 10.631
head -3.77681 -0.349161 4.69492
rclavicle -3.02153e-014 -2.0276e-014
rhumerus 28.2015 13.3291 -83.0033
rradius 124.598
rwrist 29.1544
rhand 17.0827 6.58132
rfingers 7.12502
rthumb 41.8083 -18.0726
lclavicle -3.02153e-014 -2.0276e-014
lhumerus 25.8763 -23.996 75.8868
lradius 122.644
lwrist 0.93063
lhand -12.6301 26.5239
lfingers 7.12502
lthumb 13.4497 56.0697
rfemur -43.8486 4.89286 12.0457
rtibia 55.9563
rfoot -14.0563 -9.75907
rtoes -17.7625
lfemur -44.2041 -7.32527 -15.1266
ltibia 53.2254
lfoot -11.3711 2.46493
ltoes -16.4694
1623
root 0.478258 14.6821 -3.4082 6.04227 2.61191 0.148143
lowerback 39.112 0.695493 2.42065
upperback 14.463 1.89035 2.028
thorax -2.98255 0.939335 0.220999
lowerneck -9.83706 -2.06995 -8.13639
upperneck -18.379 -0.899312 10.6563
head -3.74185 -0.333242 4.7062
rclavicle 1.90833e-014 -8.34896e-015
rhumerus 28.2721 13.3424 -82.9675
rradius 124.648
rwrist 29.1387
rhand 17.1673 5.72734
rfingers 7.12502
rthumb 41.8876 -18.9002
lclavicle 1.90833e-014 -8.34896e-015
lhumerus 25.9709 -23.9976 75.8751
lradius 122.6
lwrist 0.930935
lhand -12.6442 26.6471
lfingers 7.12502
lthumb 13.4362 56.1937
rfemur -43.7006 4.9664 12.1145
rtibia 56.0039
rfoot -14.1147 -9.74676
rtoes -17.1089
lfemur -44.0414 -7.2807 -15.0958
ltibia 53.2084
lfoot -11.389 2.43732
ltoes -16.3921
1624
root 0.477909 14.6819 -3.407 5.96069 2.60035 0.173422
lowerback 39.1419 0.759709 2.32966
upperback 14.5062 1.93644 2.03453
thorax -2.94759 0.9584 0.259033
lowerneck -9.97151 -2.04649 -8.12158
upperneck -18.3003 -0.86176 10.6581
head -3.70056 -0.310676 4.70187
rclavicle -1.66979e-014 -8.34896e-015
rhumerus 28.3449 13.3193 -82.9169
rradius 124.694
rwrist 29.1111
rhand 17.8798 5.49032
rfingers 7.12502
rthumb 42.5551 -18.911
lclavicle -1.66979e-014 -8.34896e-015
lhumerus 26.0545 -23.9748 75.8529
lradius 122.564
lwrist 1.05182
lhand -12.5765 26.5171
lfingers 7.12502
lthumb 13.5014 56.0594
rfemur -43.5811 4.98143 12.0947
rtibia 56.0846
rfoot -14.1525 -9.60374
rtoes -16.3153
lfemur -43.9324 -7.26758 -15.1433
ltibia 53.2013
lfoot -11.4068 2.40813
ltoes -16.2646
1625
root 0.478769 14.6787 -3.40834 5.97718 2.67672 0.239626
lowerback 39.0761 0.790548 2.27631
upperback 14.5248 1.95526 2.04316
thorax -2.90917 0.966632 0.289904
lowerneck -10.0939 -2.0379 -8.14874
upperneck -18.2278 -0.840847 10.6711
head -3.66103 -0.294389 4.70853
rclavicle 9.54166e-015 0
rhumerus 28.4073 13.2857 -82.8681
rradius 124.702
rwrist 29.0575
rhand 18.3394 5.62994
rfingers 7.12502
rthumb 42.9851 -18.6213
lclavicle 9.54166e-015 0
lhumerus 26.158 -24.019 75.8141
lradius 122.569
lwrist 1.2413
lhand -12.596 26.3609
lfingers 7.12502
lthumb 13.4827 55.9045
rfemur -43.5901 4.88069 12.0206
rtibia 56.1648
rfoot -14.1102 -9.53543
rtoes -15.8249
lfemur -43.9798 -7.33395 -15.2149
ltibia 53.202
lfoot -11.3816 2.38307
ltoes -16.2167
